<svg width="370" height="222" viewBox="0 0 370 222" fill="none" xmlns="http://www.w3.org/2000/svg">
<path d="M119.563 144.194C119.524 143.827 119.273 143.498 118.925 143.363C118.577 143.227 118.171 143.324 117.919 143.595L77.6046 184.344C77.3339 184.615 77.2565 185.04 77.3919 185.388C77.5466 185.756 77.8946 185.988 78.2813 185.988H122.289C122.56 185.988 122.811 185.872 123.004 185.678C123.198 185.485 123.275 185.214 123.256 184.943L119.563 144.194Z" fill="#120D3D"/>
<path d="M78.2808 103.967C100.536 103.967 118.595 122.108 118.595 144.504C118.595 166.9 100.555 185.021 78.2808 185.021" fill="#E8EDF9"/>
<path d="M78.2812 186.007C77.7398 186.007 77.3145 185.562 77.3145 185.04C77.3145 184.518 77.7398 184.073 78.2812 184.073C99.9757 184.073 117.629 166.319 117.629 144.523C117.629 122.727 99.9757 104.934 78.2812 104.934C77.7398 104.934 77.3145 104.489 77.3145 103.967C77.3145 103.445 77.7398 103 78.2812 103C101.039 103 119.563 121.624 119.563 144.504C119.563 167.383 101.039 186.007 78.2812 186.007Z" fill="#120D3D"/>
<path d="M78.2809 185.021C56.0257 185.021 37.9663 166.88 37.9663 144.485C37.9663 122.089 56.0257 103.967 78.2809 103.967" fill="#E8EDF9"/>
<path d="M78.2814 186.008C55.5235 186.008 37 167.383 37 144.504C37 133.422 41.2925 122.998 49.0847 115.165C56.8769 107.333 67.2408 103 78.2814 103C78.8228 103 79.2482 103.445 79.2482 103.967C79.2482 104.49 78.8228 104.934 78.2814 104.934C56.5869 104.934 38.9336 122.689 38.9336 144.485C38.9336 166.281 56.5869 184.054 78.2814 184.054C78.8228 184.054 79.2482 184.499 79.2482 185.021C79.2482 185.543 78.8228 186.008 78.2814 186.008Z" fill="#120D3D"/>
<path d="M251.202 52.9668H118.966V185.233H251.202V52.9668Z" fill="#E8EDF9"/>
<path d="M251.203 186.2H248.882C248.341 186.2 247.916 185.775 247.916 185.233C247.916 184.691 248.341 184.266 248.882 184.266H250.236V184.15C250.236 183.608 250.661 183.183 251.203 183.183C251.744 183.183 252.169 183.608 252.169 184.15V185.233C252.169 185.755 251.725 186.2 251.203 186.2ZM243.082 186.2H240.761C240.22 186.2 239.795 185.775 239.795 185.233C239.795 184.691 240.22 184.266 240.761 184.266H243.082C243.623 184.266 244.048 184.691 244.048 185.233C244.048 185.775 243.604 186.2 243.082 186.2ZM234.961 186.2H232.64C232.099 186.2 231.674 185.775 231.674 185.233C231.674 184.691 232.099 184.266 232.64 184.266H234.961C235.502 184.266 235.927 184.691 235.927 185.233C235.927 185.775 235.483 186.2 234.961 186.2ZM226.84 186.2H224.52C223.978 186.2 223.553 185.775 223.553 185.233C223.553 184.691 223.978 184.266 224.52 184.266H226.84C227.381 184.266 227.807 184.691 227.807 185.233C227.807 185.775 227.362 186.2 226.84 186.2ZM218.719 186.2H216.399C215.857 186.2 215.432 185.775 215.432 185.233C215.432 184.691 215.857 184.266 216.399 184.266H218.719C219.26 184.266 219.686 184.691 219.686 185.233C219.686 185.775 219.241 186.2 218.719 186.2ZM210.598 186.2H208.278C207.736 186.2 207.311 185.775 207.311 185.233C207.311 184.691 207.736 184.266 208.278 184.266H210.598C211.139 184.266 211.565 184.691 211.565 185.233C211.565 185.775 211.12 186.2 210.598 186.2ZM202.477 186.2H200.157C199.615 186.2 199.19 185.775 199.19 185.233C199.19 184.691 199.615 184.266 200.157 184.266H202.477C203.018 184.266 203.444 184.691 203.444 185.233C203.444 185.775 202.999 186.2 202.477 186.2ZM194.356 186.2H192.036C191.494 186.2 191.069 185.775 191.069 185.233C191.069 184.691 191.494 184.266 192.036 184.266H194.356C194.897 184.266 195.323 184.691 195.323 185.233C195.323 185.775 194.878 186.2 194.356 186.2ZM186.235 186.2H183.915C183.373 186.2 182.948 185.775 182.948 185.233C182.948 184.691 183.373 184.266 183.915 184.266H186.235C186.777 184.266 187.202 184.691 187.202 185.233C187.202 185.775 186.757 186.2 186.235 186.2ZM178.114 186.2H175.794C175.253 186.2 174.827 185.775 174.827 185.233C174.827 184.691 175.253 184.266 175.794 184.266H178.114C178.656 184.266 179.081 184.691 179.081 185.233C179.081 185.775 178.636 186.2 178.114 186.2ZM169.993 186.2H167.673C167.132 186.2 166.706 185.775 166.706 185.233C166.706 184.691 167.132 184.266 167.673 184.266H169.993C170.535 184.266 170.96 184.691 170.96 185.233C170.96 185.775 170.515 186.2 169.993 186.2ZM161.872 186.2H159.552C159.011 186.2 158.585 185.775 158.585 185.233C158.585 184.691 159.011 184.266 159.552 184.266H161.872C162.414 184.266 162.839 184.691 162.839 185.233C162.839 185.775 162.394 186.2 161.872 186.2ZM153.751 186.2H151.431C150.89 186.2 150.464 185.775 150.464 185.233C150.464 184.691 150.89 184.266 151.431 184.266H153.751C154.293 184.266 154.718 184.691 154.718 185.233C154.718 185.775 154.273 186.2 153.751 186.2ZM145.63 186.2H143.31C142.769 186.2 142.343 185.775 142.343 185.233C142.343 184.691 142.769 184.266 143.31 184.266H145.63C146.172 184.266 146.597 184.691 146.597 185.233C146.597 185.775 146.153 186.2 145.63 186.2ZM137.51 186.2H135.189C134.648 186.2 134.223 185.775 134.223 185.233C134.223 184.691 134.648 184.266 135.189 184.266H137.51C138.051 184.266 138.476 184.691 138.476 185.233C138.476 185.775 138.032 186.2 137.51 186.2ZM129.389 186.2H127.068C126.527 186.2 126.102 185.775 126.102 185.233C126.102 184.691 126.527 184.266 127.068 184.266H129.389C129.93 184.266 130.355 184.691 130.355 185.233C130.355 185.775 129.911 186.2 129.389 186.2ZM121.268 186.2H118.967C118.425 186.2 118 185.775 118 185.233C118 184.691 118.425 184.266 118.967 184.266C119.005 184.266 119.063 184.266 119.102 184.266H121.268C121.809 184.266 122.234 184.691 122.234 185.233C122.234 185.775 121.79 186.2 121.268 186.2ZM118.967 180.379C118.425 180.379 118 179.953 118 179.412V177.091C118 176.549 118.425 176.124 118.967 176.124C119.508 176.124 119.934 176.549 119.934 177.091V179.412C119.934 179.934 119.489 180.379 118.967 180.379ZM251.203 179.296C250.661 179.296 250.236 178.87 250.236 178.329V176.008C250.236 175.466 250.661 175.041 251.203 175.041C251.744 175.041 252.169 175.466 252.169 176.008V178.329C252.169 178.87 251.725 179.296 251.203 179.296ZM118.967 172.256C118.425 172.256 118 171.83 118 171.289V168.968C118 168.427 118.425 168.001 118.967 168.001C119.508 168.001 119.934 168.427 119.934 168.968V171.289C119.934 171.811 119.489 172.256 118.967 172.256ZM251.203 171.173C250.661 171.173 250.236 170.747 250.236 170.206V167.885C250.236 167.344 250.661 166.918 251.203 166.918C251.744 166.918 252.169 167.344 252.169 167.885V170.206C252.169 170.747 251.725 171.173 251.203 171.173ZM118.967 164.133C118.425 164.133 118 163.708 118 163.166V160.845C118 160.304 118.425 159.878 118.967 159.878C119.508 159.878 119.934 160.304 119.934 160.845V163.166C119.934 163.688 119.489 164.133 118.967 164.133ZM251.203 163.05C250.661 163.05 250.236 162.625 250.236 162.083V159.762C250.236 159.221 250.661 158.795 251.203 158.795C251.744 158.795 252.169 159.221 252.169 159.762V162.083C252.169 162.625 251.725 163.05 251.203 163.05ZM118.967 156.01C118.425 156.01 118 155.585 118 155.043V152.723C118 152.181 118.425 151.756 118.967 151.756C119.508 151.756 119.934 152.181 119.934 152.723V155.043C119.934 155.565 119.489 156.01 118.967 156.01ZM251.203 154.927C250.661 154.927 250.236 154.502 250.236 153.96V151.639C250.236 151.098 250.661 150.672 251.203 150.672C251.744 150.672 252.169 151.098 252.169 151.639V153.96C252.169 154.502 251.725 154.927 251.203 154.927ZM118.967 147.888C118.425 147.888 118 147.462 118 146.921V144.6C118 144.058 118.425 143.633 118.967 143.633C119.508 143.633 119.934 144.058 119.934 144.6V146.921C119.934 147.443 119.489 147.888 118.967 147.888ZM251.203 146.804C250.661 146.804 250.236 146.379 250.236 145.837V143.517C250.236 142.975 250.661 142.55 251.203 142.55C251.744 142.55 252.169 142.975 252.169 143.517V145.837C252.169 146.379 251.725 146.804 251.203 146.804ZM118.967 139.765C118.425 139.765 118 139.339 118 138.798V136.477C118 135.935 118.425 135.51 118.967 135.51C119.508 135.51 119.934 135.935 119.934 136.477V138.798C119.934 139.32 119.489 139.765 118.967 139.765ZM251.203 138.682C250.661 138.682 250.236 138.256 250.236 137.715V135.394C250.236 134.852 250.661 134.427 251.203 134.427C251.744 134.427 252.169 134.852 252.169 135.394V137.715C252.169 138.256 251.725 138.682 251.203 138.682ZM118.967 131.642C118.425 131.642 118 131.216 118 130.675V128.354C118 127.813 118.425 127.387 118.967 127.387C119.508 127.387 119.934 127.813 119.934 128.354V130.675C119.934 131.197 119.489 131.642 118.967 131.642ZM251.203 130.559C250.661 130.559 250.236 130.133 250.236 129.592V127.271C250.236 126.73 250.661 126.304 251.203 126.304C251.744 126.304 252.169 126.73 252.169 127.271V129.592C252.169 130.133 251.725 130.559 251.203 130.559ZM118.967 123.519C118.425 123.519 118 123.094 118 122.552V120.231C118 119.69 118.425 119.264 118.967 119.264C119.508 119.264 119.934 119.69 119.934 120.231V122.552C119.934 123.074 119.489 123.519 118.967 123.519ZM251.203 122.436C250.661 122.436 250.236 122.011 250.236 121.469V119.148C250.236 118.607 250.661 118.181 251.203 118.181C251.744 118.181 252.169 118.607 252.169 119.148V121.469C252.169 122.011 251.725 122.436 251.203 122.436ZM118.967 115.396C118.425 115.396 118 114.971 118 114.429V112.109C118 111.567 118.425 111.142 118.967 111.142C119.508 111.142 119.934 111.567 119.934 112.109V114.429C119.934 114.952 119.489 115.396 118.967 115.396ZM251.203 114.313C250.661 114.313 250.236 113.888 250.236 113.346V111.026C250.236 110.484 250.661 110.059 251.203 110.059C251.744 110.059 252.169 110.484 252.169 111.026V113.346C252.169 113.888 251.725 114.313 251.203 114.313ZM118.967 107.274C118.425 107.274 118 106.848 118 106.307V103.986C118 103.444 118.425 103.019 118.967 103.019C119.508 103.019 119.934 103.444 119.934 103.986V106.307C119.934 106.829 119.489 107.274 118.967 107.274ZM251.203 106.191C250.661 106.191 250.236 105.765 250.236 105.224V102.903C250.236 102.361 250.661 101.936 251.203 101.936C251.744 101.936 252.169 102.361 252.169 102.903V105.224C252.169 105.765 251.725 106.191 251.203 106.191ZM118.967 99.1508C118.425 99.1508 118 98.7253 118 98.1838V95.863C118 95.3215 118.425 94.896 118.967 94.896C119.508 94.896 119.934 95.3215 119.934 95.863V98.1838C119.934 98.706 119.489 99.1508 118.967 99.1508ZM251.203 98.0678C250.661 98.0678 250.236 97.6423 250.236 97.1008V94.78C250.236 94.2385 250.661 93.813 251.203 93.813C251.744 93.813 252.169 94.2385 252.169 94.78V97.1008C252.169 97.6423 251.725 98.0678 251.203 98.0678ZM118.967 91.028C118.425 91.028 118 90.6026 118 90.061V87.7402C118 87.1987 118.425 86.7733 118.967 86.7733C119.508 86.7733 119.934 87.1987 119.934 87.7402V90.061C119.934 90.5832 119.489 91.028 118.967 91.028ZM251.203 89.945C250.661 89.945 250.236 89.5195 250.236 88.978V86.6572C250.236 86.1157 250.661 85.6902 251.203 85.6902C251.744 85.6902 252.169 86.1157 252.169 86.6572V88.978C252.169 89.5195 251.725 89.945 251.203 89.945ZM118.967 82.9053C118.425 82.9053 118 82.4798 118 81.9383V79.6175C118 79.0759 118.425 78.6505 118.967 78.6505C119.508 78.6505 119.934 79.0759 119.934 79.6175V81.9383C119.934 82.4604 119.489 82.9053 118.967 82.9053ZM251.203 81.8222C250.661 81.8222 250.236 81.3967 250.236 80.8552V78.5344C250.236 77.9929 250.661 77.5674 251.203 77.5674C251.744 77.5674 252.169 77.9929 252.169 78.5344V80.8552C252.169 81.3967 251.725 81.8222 251.203 81.8222ZM118.967 74.7825C118.425 74.7825 118 74.357 118 73.8155V71.4947C118 70.9532 118.425 70.5277 118.967 70.5277C119.508 70.5277 119.934 70.9532 119.934 71.4947V73.8155C119.934 74.3377 119.489 74.7825 118.967 74.7825ZM251.203 73.6994C250.661 73.6994 250.236 73.274 250.236 72.7324V70.4116C250.236 69.8701 250.661 69.4446 251.203 69.4446C251.744 69.4446 252.169 69.8701 252.169 70.4116V72.7324C252.169 73.274 251.725 73.6994 251.203 73.6994ZM118.967 66.6597C118.425 66.6597 118 66.2342 118 65.6927V63.3719C118 62.8304 118.425 62.4049 118.967 62.4049C119.508 62.4049 119.934 62.8304 119.934 63.3719V65.6927C119.934 66.2149 119.489 66.6597 118.967 66.6597ZM251.203 65.5767C250.661 65.5767 250.236 65.1512 250.236 64.6097V62.2889C250.236 61.7473 250.661 61.3219 251.203 61.3219C251.744 61.3219 252.169 61.7473 252.169 62.2889V64.6097C252.169 65.1512 251.725 65.5767 251.203 65.5767ZM118.967 58.5369C118.425 58.5369 118 58.1114 118 57.5699V55.2491C118 54.7076 118.425 54.2821 118.967 54.2821C119.508 54.2821 119.934 54.7076 119.934 55.2491V57.5699C119.934 58.0921 119.489 58.5369 118.967 58.5369ZM251.203 57.4539C250.661 57.4539 250.236 57.0284 250.236 56.4869V54.1661C250.236 53.6246 250.661 53.1991 251.203 53.1991C251.744 53.1991 252.169 53.6246 252.169 54.1661V56.4869C252.169 57.0284 251.725 57.4539 251.203 57.4539ZM246.62 53.934H244.3C243.758 53.934 243.333 53.5085 243.333 52.967C243.333 52.4255 243.758 52 244.3 52H246.62C247.161 52 247.587 52.4255 247.587 52.967C247.587 53.5085 247.142 53.934 246.62 53.934ZM238.499 53.934H236.179C235.637 53.934 235.212 53.5085 235.212 52.967C235.212 52.4255 235.637 52 236.179 52H238.499C239.041 52 239.466 52.4255 239.466 52.967C239.466 53.5085 239.021 53.934 238.499 53.934ZM230.378 53.934H228.058C227.517 53.934 227.091 53.5085 227.091 52.967C227.091 52.4255 227.517 52 228.058 52H230.378C230.92 52 231.345 52.4255 231.345 52.967C231.345 53.5085 230.9 53.934 230.378 53.934ZM222.257 53.934H219.937C219.396 53.934 218.97 53.5085 218.97 52.967C218.97 52.4255 219.396 52 219.937 52H222.257C222.799 52 223.224 52.4255 223.224 52.967C223.224 53.5085 222.779 53.934 222.257 53.934ZM214.136 53.934H211.816C211.275 53.934 210.849 53.5085 210.849 52.967C210.849 52.4255 211.275 52 211.816 52H214.136C214.678 52 215.103 52.4255 215.103 52.967C215.103 53.5085 214.658 53.934 214.136 53.934ZM206.015 53.934H203.695C203.154 53.934 202.728 53.5085 202.728 52.967C202.728 52.4255 203.154 52 203.695 52H206.015C206.557 52 206.982 52.4255 206.982 52.967C206.982 53.5085 206.537 53.934 206.015 53.934ZM197.894 53.934H195.574C195.033 53.934 194.607 53.5085 194.607 52.967C194.607 52.4255 195.033 52 195.574 52H197.894C198.436 52 198.861 52.4255 198.861 52.967C198.861 53.5085 198.417 53.934 197.894 53.934ZM189.774 53.934H187.453C186.912 53.934 186.487 53.5085 186.487 52.967C186.487 52.4255 186.912 52 187.453 52H189.774C190.315 52 190.74 52.4255 190.74 52.967C190.74 53.5085 190.296 53.934 189.774 53.934ZM181.653 53.934H179.332C178.791 53.934 178.366 53.5085 178.366 52.967C178.366 52.4255 178.791 52 179.332 52H181.653C182.194 52 182.619 52.4255 182.619 52.967C182.619 53.5085 182.175 53.934 181.653 53.934ZM173.532 53.934H171.211C170.67 53.934 170.245 53.5085 170.245 52.967C170.245 52.4255 170.67 52 171.211 52H173.532C174.073 52 174.498 52.4255 174.498 52.967C174.498 53.5085 174.054 53.934 173.532 53.934ZM165.411 53.934H163.09C162.549 53.934 162.124 53.5085 162.124 52.967C162.124 52.4255 162.549 52 163.09 52H165.411C165.952 52 166.378 52.4255 166.378 52.967C166.378 53.5085 165.933 53.934 165.411 53.934ZM157.29 53.934H154.97C154.428 53.934 154.003 53.5085 154.003 52.967C154.003 52.4255 154.428 52 154.97 52H157.29C157.831 52 158.257 52.4255 158.257 52.967C158.257 53.5085 157.812 53.934 157.29 53.934ZM149.169 53.934H146.849C146.307 53.934 145.882 53.5085 145.882 52.967C145.882 52.4255 146.307 52 146.849 52H149.169C149.71 52 150.136 52.4255 150.136 52.967C150.136 53.5085 149.691 53.934 149.169 53.934ZM141.048 53.934H138.728C138.186 53.934 137.761 53.5085 137.761 52.967C137.761 52.4255 138.186 52 138.728 52H141.048C141.589 52 142.015 52.4255 142.015 52.967C142.015 53.5085 141.57 53.934 141.048 53.934ZM132.927 53.934H130.607C130.065 53.934 129.64 53.5085 129.64 52.967C129.64 52.4255 130.065 52 130.607 52H132.927C133.468 52 133.894 52.4255 133.894 52.967C133.894 53.5085 133.449 53.934 132.927 53.934ZM124.806 53.934H122.486C121.944 53.934 121.519 53.5085 121.519 52.967C121.519 52.4255 121.944 52 122.486 52H124.806C125.348 52 125.773 52.4255 125.773 52.967C125.773 53.5085 125.328 53.934 124.806 53.934Z" fill="#120D3D"/>
<path d="M251.203 90.7186H248.882C248.341 90.7186 247.916 90.2931 247.916 89.7516C247.916 89.2101 248.341 88.7846 248.882 88.7846H251.203C251.744 88.7846 252.169 89.2101 252.169 89.7516C252.169 90.2931 251.725 90.7186 251.203 90.7186ZM243.082 90.7186H240.761C240.22 90.7186 239.795 90.2931 239.795 89.7516C239.795 89.2101 240.22 88.7846 240.761 88.7846H243.082C243.623 88.7846 244.048 89.2101 244.048 89.7516C244.048 90.2931 243.604 90.7186 243.082 90.7186ZM234.961 90.7186H232.64C232.099 90.7186 231.674 90.2931 231.674 89.7516C231.674 89.2101 232.099 88.7846 232.64 88.7846H234.961C235.502 88.7846 235.927 89.2101 235.927 89.7516C235.927 90.2931 235.483 90.7186 234.961 90.7186ZM226.84 90.7186H224.52C223.978 90.7186 223.553 90.2931 223.553 89.7516C223.553 89.2101 223.978 88.7846 224.52 88.7846H226.84C227.381 88.7846 227.807 89.2101 227.807 89.7516C227.807 90.2931 227.362 90.7186 226.84 90.7186ZM218.719 90.7186H216.399C215.857 90.7186 215.432 90.2931 215.432 89.7516C215.432 89.2101 215.857 88.7846 216.399 88.7846H218.719C219.26 88.7846 219.686 89.2101 219.686 89.7516C219.686 90.2931 219.241 90.7186 218.719 90.7186ZM210.598 90.7186H208.278C207.736 90.7186 207.311 90.2931 207.311 89.7516C207.311 89.2101 207.736 88.7846 208.278 88.7846H210.598C211.139 88.7846 211.565 89.2101 211.565 89.7516C211.565 90.2931 211.12 90.7186 210.598 90.7186ZM202.477 90.7186H200.157C199.615 90.7186 199.19 90.2931 199.19 89.7516C199.19 89.2101 199.615 88.7846 200.157 88.7846H202.477C203.018 88.7846 203.444 89.2101 203.444 89.7516C203.444 90.2931 202.999 90.7186 202.477 90.7186ZM194.356 90.7186H192.036C191.494 90.7186 191.069 90.2931 191.069 89.7516C191.069 89.2101 191.494 88.7846 192.036 88.7846H194.356C194.897 88.7846 195.323 89.2101 195.323 89.7516C195.323 90.2931 194.878 90.7186 194.356 90.7186ZM186.235 90.7186H183.915C183.373 90.7186 182.948 90.2931 182.948 89.7516C182.948 89.2101 183.373 88.7846 183.915 88.7846H186.235C186.777 88.7846 187.202 89.2101 187.202 89.7516C187.202 90.2931 186.757 90.7186 186.235 90.7186ZM178.114 90.7186H175.794C175.253 90.7186 174.827 90.2931 174.827 89.7516C174.827 89.2101 175.253 88.7846 175.794 88.7846H178.114C178.656 88.7846 179.081 89.2101 179.081 89.7516C179.081 90.2931 178.636 90.7186 178.114 90.7186ZM169.993 90.7186H167.673C167.132 90.7186 166.706 90.2931 166.706 89.7516C166.706 89.2101 167.132 88.7846 167.673 88.7846H169.993C170.535 88.7846 170.96 89.2101 170.96 89.7516C170.96 90.2931 170.515 90.7186 169.993 90.7186ZM161.872 90.7186H159.552C159.011 90.7186 158.585 90.2931 158.585 89.7516C158.585 89.2101 159.011 88.7846 159.552 88.7846H161.872C162.414 88.7846 162.839 89.2101 162.839 89.7516C162.839 90.2931 162.394 90.7186 161.872 90.7186ZM153.751 90.7186H151.431C150.89 90.7186 150.464 90.2931 150.464 89.7516C150.464 89.2101 150.89 88.7846 151.431 88.7846H153.751C154.293 88.7846 154.718 89.2101 154.718 89.7516C154.718 90.2931 154.273 90.7186 153.751 90.7186ZM145.63 90.7186H143.31C142.769 90.7186 142.343 90.2931 142.343 89.7516C142.343 89.2101 142.769 88.7846 143.31 88.7846H145.63C146.172 88.7846 146.597 89.2101 146.597 89.7516C146.597 90.2931 146.153 90.7186 145.63 90.7186ZM137.51 90.7186H135.189C134.648 90.7186 134.223 90.2931 134.223 89.7516C134.223 89.2101 134.648 88.7846 135.189 88.7846H137.51C138.051 88.7846 138.476 89.2101 138.476 89.7516C138.476 90.2931 138.032 90.7186 137.51 90.7186ZM129.389 90.7186H127.068C126.527 90.7186 126.102 90.2931 126.102 89.7516C126.102 89.2101 126.527 88.7846 127.068 88.7846H129.389C129.93 88.7846 130.355 89.2101 130.355 89.7516C130.355 90.2931 129.911 90.7186 129.389 90.7186ZM121.268 90.7186H118.967C118.425 90.7186 118 90.2931 118 89.7516C118 89.2101 118.425 88.7846 118.967 88.7846C119.005 88.7846 119.063 88.7846 119.102 88.7846H121.268C121.809 88.7846 122.234 89.2101 122.234 89.7516C122.234 90.2931 121.79 90.7186 121.268 90.7186ZM251.203 87.953C250.661 87.953 250.236 87.5275 250.236 86.986V84.6652C250.236 84.1237 250.661 83.6982 251.203 83.6982C251.744 83.6982 252.169 84.1237 252.169 84.6652V86.986C252.169 87.5275 251.725 87.953 251.203 87.953ZM118.967 84.8973C118.425 84.8973 118 84.4718 118 83.9303V81.6095C118 81.068 118.425 80.6425 118.967 80.6425C119.508 80.6425 119.934 81.068 119.934 81.6095V83.9303C119.934 84.4525 119.489 84.8973 118.967 84.8973ZM251.203 79.8302C250.661 79.8302 250.236 79.4047 250.236 78.8632V76.5424C250.236 76.0009 250.661 75.5754 251.203 75.5754C251.744 75.5754 252.169 76.0009 252.169 76.5424V78.8632C252.169 79.4047 251.725 79.8302 251.203 79.8302ZM118.967 76.7745C118.425 76.7745 118 76.349 118 75.8075V73.4867C118 72.9452 118.425 72.5197 118.967 72.5197C119.508 72.5197 119.934 72.9452 119.934 73.4867V75.8075C119.934 76.3297 119.489 76.7745 118.967 76.7745ZM251.203 71.7074C250.661 71.7074 250.236 71.2819 250.236 70.7404V68.4196C250.236 67.8781 250.661 67.4526 251.203 67.4526C251.744 67.4526 252.169 67.8781 252.169 68.4196V70.7404C252.169 71.2819 251.725 71.7074 251.203 71.7074ZM118.967 68.6517C118.425 68.6517 118 68.2262 118 67.6847V65.3639C118 64.8224 118.425 64.3969 118.967 64.3969C119.508 64.3969 119.934 64.8224 119.934 65.3639V67.6847C119.934 68.2069 119.489 68.6517 118.967 68.6517ZM251.203 63.5846C250.661 63.5846 250.236 63.1592 250.236 62.6176V60.2968C250.236 59.7553 250.661 59.3298 251.203 59.3298C251.744 59.3298 252.169 59.7553 252.169 60.2968V62.6176C252.169 63.1592 251.725 63.5846 251.203 63.5846ZM118.967 60.5289C118.425 60.5289 118 60.1034 118 59.5619V57.2411C118 56.6996 118.425 56.2741 118.967 56.2741C119.508 56.2741 119.934 56.6996 119.934 57.2411V59.5619C119.934 60.0841 119.489 60.5289 118.967 60.5289ZM251.203 55.4619C250.661 55.4619 250.236 55.0364 250.236 54.4949V53.9147C249.791 53.8373 249.462 53.4312 249.462 52.967C249.462 52.4255 249.888 52 250.429 52H251.203C251.744 52 252.169 52.4255 252.169 52.967V54.5142C252.169 55.0364 251.725 55.4619 251.203 55.4619ZM244.609 53.934H242.289C241.747 53.934 241.322 53.5085 241.322 52.967C241.322 52.4255 241.747 52 242.289 52H244.609C245.151 52 245.576 52.4255 245.576 52.967C245.576 53.5085 245.151 53.934 244.609 53.934ZM236.488 53.934H234.168C233.627 53.934 233.201 53.5085 233.201 52.967C233.201 52.4255 233.627 52 234.168 52H236.488C237.03 52 237.455 52.4255 237.455 52.967C237.455 53.5085 237.03 53.934 236.488 53.934ZM228.367 53.934H226.047C225.506 53.934 225.08 53.5085 225.08 52.967C225.08 52.4255 225.506 52 226.047 52H228.367C228.909 52 229.334 52.4255 229.334 52.967C229.334 53.5085 228.909 53.934 228.367 53.934ZM220.246 53.934H217.926C217.385 53.934 216.959 53.5085 216.959 52.967C216.959 52.4255 217.385 52 217.926 52H220.246C220.788 52 221.213 52.4255 221.213 52.967C221.213 53.5085 220.788 53.934 220.246 53.934ZM212.125 53.934H209.805C209.264 53.934 208.838 53.5085 208.838 52.967C208.838 52.4255 209.264 52 209.805 52H212.125C212.667 52 213.092 52.4255 213.092 52.967C213.092 53.5085 212.667 53.934 212.125 53.934ZM204.005 53.934H201.684C201.143 53.934 200.717 53.5085 200.717 52.967C200.717 52.4255 201.143 52 201.684 52H204.005C204.546 52 204.971 52.4255 204.971 52.967C204.971 53.5085 204.546 53.934 204.005 53.934ZM195.884 53.934H193.563C193.022 53.934 192.597 53.5085 192.597 52.967C192.597 52.4255 193.022 52 193.563 52H195.884C196.425 52 196.85 52.4255 196.85 52.967C196.85 53.5085 196.425 53.934 195.884 53.934ZM187.763 53.934H185.442C184.901 53.934 184.476 53.5085 184.476 52.967C184.476 52.4255 184.901 52 185.442 52H187.763C188.304 52 188.729 52.4255 188.729 52.967C188.729 53.5085 188.304 53.934 187.763 53.934ZM179.642 53.934H177.321C176.78 53.934 176.355 53.5085 176.355 52.967C176.355 52.4255 176.78 52 177.321 52H179.642C180.183 52 180.608 52.4255 180.608 52.967C180.608 53.5085 180.183 53.934 179.642 53.934ZM171.521 53.934H169.201C168.659 53.934 168.234 53.5085 168.234 52.967C168.234 52.4255 168.659 52 169.201 52H171.521C172.062 52 172.488 52.4255 172.488 52.967C172.488 53.5085 172.062 53.934 171.521 53.934ZM163.4 53.934H161.08C160.538 53.934 160.113 53.5085 160.113 52.967C160.113 52.4255 160.538 52 161.08 52H163.4C163.941 52 164.367 52.4255 164.367 52.967C164.367 53.5085 163.941 53.934 163.4 53.934ZM155.279 53.934H152.959C152.417 53.934 151.992 53.5085 151.992 52.967C151.992 52.4255 152.417 52 152.959 52H155.279C155.82 52 156.246 52.4255 156.246 52.967C156.246 53.5085 155.82 53.934 155.279 53.934ZM147.158 53.934H144.838C144.296 53.934 143.871 53.5085 143.871 52.967C143.871 52.4255 144.296 52 144.838 52H147.158C147.699 52 148.125 52.4255 148.125 52.967C148.125 53.5085 147.699 53.934 147.158 53.934ZM139.037 53.934H136.717C136.175 53.934 135.75 53.5085 135.75 52.967C135.75 52.4255 136.175 52 136.717 52H139.037C139.578 52 140.004 52.4255 140.004 52.967C140.004 53.5085 139.578 53.934 139.037 53.934ZM130.916 53.934H128.596C128.054 53.934 127.629 53.5085 127.629 52.967C127.629 52.4255 128.054 52 128.596 52H130.916C131.458 52 131.883 52.4255 131.883 52.967C131.883 53.5085 131.458 53.934 130.916 53.934ZM122.795 53.934H120.475C119.934 53.934 119.508 53.5085 119.508 52.967C119.508 52.4255 119.934 52 120.475 52H122.795C123.337 52 123.762 52.4255 123.762 52.967C123.762 53.5085 123.337 53.934 122.795 53.934Z" fill="#120D3D"/>
<path d="M134.783 76.4458C137.592 76.4458 139.869 74.1685 139.869 71.3594C139.869 68.5502 137.592 66.2729 134.783 66.2729C131.975 66.2729 129.698 68.5502 129.698 71.3594C129.698 74.1685 131.975 76.4458 134.783 76.4458Z" fill="#4C63F6"/>
<path d="M134.783 77.4125C131.438 77.4125 128.731 74.7049 128.731 71.3591C128.731 68.0133 131.438 65.3057 134.783 65.3057C138.128 65.3057 140.835 68.0133 140.835 71.3591C140.835 74.6855 138.128 77.4125 134.783 77.4125ZM134.783 67.2397C132.521 67.2397 130.665 69.0963 130.665 71.3591C130.665 73.6218 132.521 75.4785 134.783 75.4785C137.045 75.4785 138.901 73.6218 138.901 71.3591C138.901 69.0963 137.045 67.2397 134.783 67.2397Z" fill="#383A48"/>
<path d="M150.348 76.4458C153.156 76.4458 155.433 74.1685 155.433 71.3594C155.433 68.5502 153.156 66.2729 150.348 66.2729C147.539 66.2729 145.263 68.5502 145.263 71.3594C145.263 74.1685 147.539 76.4458 150.348 76.4458Z" fill="#4C63F6"/>
<path d="M150.348 77.4125C147.003 77.4125 144.296 74.7049 144.296 71.3591C144.296 68.0133 147.003 65.3057 150.348 65.3057C153.693 65.3057 156.4 68.0133 156.4 71.3591C156.4 74.6855 153.693 77.4125 150.348 77.4125ZM150.348 67.2397C148.086 67.2397 146.229 69.0963 146.229 71.3591C146.229 73.6218 148.086 75.4785 150.348 75.4785C152.61 75.4785 154.466 73.6218 154.466 71.3591C154.466 69.0963 152.61 67.2397 150.348 67.2397Z" fill="#383A48"/>
<path d="M165.914 76.4458C168.722 76.4458 170.999 74.1685 170.999 71.3594C170.999 68.5502 168.722 66.2729 165.914 66.2729C163.105 66.2729 160.829 68.5502 160.829 71.3594C160.829 74.1685 163.105 76.4458 165.914 76.4458Z" fill="#4C63F6"/>
<path d="M165.914 77.4125C162.569 77.4125 159.862 74.7049 159.862 71.3591C159.862 68.0133 162.569 65.3057 165.914 65.3057C169.259 65.3057 171.966 68.0133 171.966 71.3591C171.966 74.6855 169.259 77.4125 165.914 77.4125ZM165.914 67.2397C163.652 67.2397 161.795 69.0963 161.795 71.3591C161.795 73.6218 163.652 75.4785 165.914 75.4785C168.176 75.4785 170.032 73.6218 170.032 71.3591C170.032 69.0963 168.176 67.2397 165.914 67.2397Z" fill="#383A48"/>
<path d="M230.108 109.382H140.062V133.75H230.108V109.382Z" fill="#4C63F6"/>
<path d="M230.108 134.717H227.787C227.246 134.717 226.821 134.291 226.821 133.75C226.821 133.208 227.246 132.783 227.787 132.783H229.141V132.319C229.141 131.777 229.566 131.352 230.108 131.352C230.649 131.352 231.074 131.777 231.074 132.319V133.75C231.074 134.272 230.63 134.717 230.108 134.717ZM221.987 134.717H219.666C219.125 134.717 218.7 134.291 218.7 133.75C218.7 133.208 219.125 132.783 219.666 132.783H221.987C222.528 132.783 222.953 133.208 222.953 133.75C222.953 134.291 222.509 134.717 221.987 134.717ZM213.866 134.717H211.546C211.004 134.717 210.579 134.291 210.579 133.75C210.579 133.208 211.004 132.783 211.546 132.783H213.866C214.407 132.783 214.833 133.208 214.833 133.75C214.833 134.291 214.388 134.717 213.866 134.717ZM205.745 134.717H203.425C202.883 134.717 202.458 134.291 202.458 133.75C202.458 133.208 202.883 132.783 203.425 132.783H205.745C206.286 132.783 206.712 133.208 206.712 133.75C206.712 134.291 206.267 134.717 205.745 134.717ZM197.624 134.717H195.304C194.762 134.717 194.337 134.291 194.337 133.75C194.337 133.208 194.762 132.783 195.304 132.783H197.624C198.165 132.783 198.591 133.208 198.591 133.75C198.591 134.291 198.146 134.717 197.624 134.717ZM189.503 134.717H187.183C186.641 134.717 186.216 134.291 186.216 133.75C186.216 133.208 186.641 132.783 187.183 132.783H189.503C190.044 132.783 190.47 133.208 190.47 133.75C190.47 134.291 190.025 134.717 189.503 134.717ZM181.382 134.717H179.062C178.52 134.717 178.095 134.291 178.095 133.75C178.095 133.208 178.52 132.783 179.062 132.783H181.382C181.923 132.783 182.349 133.208 182.349 133.75C182.349 134.291 181.904 134.717 181.382 134.717ZM173.261 134.717H170.941C170.399 134.717 169.974 134.291 169.974 133.75C169.974 133.208 170.399 132.783 170.941 132.783H173.261C173.803 132.783 174.228 133.208 174.228 133.75C174.228 134.291 173.783 134.717 173.261 134.717ZM165.14 134.717H162.82C162.279 134.717 161.853 134.291 161.853 133.75C161.853 133.208 162.279 132.783 162.82 132.783H165.14C165.682 132.783 166.107 133.208 166.107 133.75C166.107 134.291 165.662 134.717 165.14 134.717ZM157.019 134.717H154.699C154.158 134.717 153.732 134.291 153.732 133.75C153.732 133.208 154.158 132.783 154.699 132.783H157.019C157.561 132.783 157.986 133.208 157.986 133.75C157.986 134.291 157.541 134.717 157.019 134.717ZM148.898 134.717H146.578C146.037 134.717 145.611 134.291 145.611 133.75C145.611 133.208 146.037 132.783 146.578 132.783H148.898C149.44 132.783 149.865 133.208 149.865 133.75C149.865 134.291 149.42 134.717 148.898 134.717ZM140.777 134.717H140.062C139.521 134.717 139.095 134.291 139.095 133.75V132.145C139.095 131.603 139.521 131.178 140.062 131.178C140.603 131.178 141.029 131.603 141.029 132.145V132.822C141.435 132.938 141.744 133.305 141.744 133.75C141.744 134.272 141.299 134.717 140.777 134.717ZM230.108 127.484C229.566 127.484 229.141 127.058 229.141 126.517V124.196C229.141 123.654 229.566 123.229 230.108 123.229C230.649 123.229 231.074 123.654 231.074 124.196V126.517C231.074 127.039 230.63 127.484 230.108 127.484ZM140.062 127.31C139.521 127.31 139.095 126.884 139.095 126.343V124.022C139.095 123.48 139.521 123.055 140.062 123.055C140.603 123.055 141.029 123.48 141.029 124.022V126.343C141.029 126.865 140.584 127.31 140.062 127.31ZM230.108 119.361C229.566 119.361 229.141 118.935 229.141 118.394V116.073C229.141 115.532 229.566 115.106 230.108 115.106C230.649 115.106 231.074 115.532 231.074 116.073V118.394C231.074 118.916 230.63 119.361 230.108 119.361ZM140.062 119.187C139.521 119.187 139.095 118.761 139.095 118.22V115.899C139.095 115.358 139.521 114.932 140.062 114.932C140.603 114.932 141.029 115.358 141.029 115.899V118.22C141.029 118.742 140.584 119.187 140.062 119.187ZM230.108 111.238C229.605 111.238 229.18 110.851 229.141 110.349H228.677C228.135 110.349 227.71 109.923 227.71 109.382C227.71 108.84 228.135 108.415 228.677 108.415H230.108C230.649 108.415 231.074 108.84 231.074 109.382V110.271C231.074 110.793 230.63 111.238 230.108 111.238ZM140.062 111.064C139.521 111.064 139.095 110.639 139.095 110.097V109.382C139.095 108.84 139.521 108.415 140.062 108.415H141.667C142.208 108.415 142.634 108.84 142.634 109.382C142.634 109.923 142.208 110.349 141.667 110.349H140.99C140.874 110.755 140.507 111.064 140.062 111.064ZM222.876 110.349H220.556C220.014 110.349 219.589 109.923 219.589 109.382C219.589 108.84 220.014 108.415 220.556 108.415H222.876C223.418 108.415 223.843 108.84 223.843 109.382C223.843 109.923 223.398 110.349 222.876 110.349ZM214.755 110.349H212.435C211.894 110.349 211.468 109.923 211.468 109.382C211.468 108.84 211.894 108.415 212.435 108.415H214.755C215.297 108.415 215.722 108.84 215.722 109.382C215.722 109.923 215.277 110.349 214.755 110.349ZM206.634 110.349H204.314C203.773 110.349 203.347 109.923 203.347 109.382C203.347 108.84 203.773 108.415 204.314 108.415H206.634C207.176 108.415 207.601 108.84 207.601 109.382C207.601 109.923 207.156 110.349 206.634 110.349ZM198.513 110.349H196.193C195.652 110.349 195.226 109.923 195.226 109.382C195.226 108.84 195.652 108.415 196.193 108.415H198.513C199.055 108.415 199.48 108.84 199.48 109.382C199.48 109.923 199.035 110.349 198.513 110.349ZM190.392 110.349H188.072C187.531 110.349 187.105 109.923 187.105 109.382C187.105 108.84 187.531 108.415 188.072 108.415H190.392C190.934 108.415 191.359 108.84 191.359 109.382C191.359 109.923 190.914 110.349 190.392 110.349ZM182.271 110.349H179.951C179.41 110.349 178.984 109.923 178.984 109.382C178.984 108.84 179.41 108.415 179.951 108.415H182.271C182.813 108.415 183.238 108.84 183.238 109.382C183.238 109.923 182.794 110.349 182.271 110.349ZM174.151 110.349H171.83C171.289 110.349 170.864 109.923 170.864 109.382C170.864 108.84 171.289 108.415 171.83 108.415H174.151C174.692 108.415 175.117 108.84 175.117 109.382C175.117 109.923 174.673 110.349 174.151 110.349ZM166.03 110.349H163.709C163.168 110.349 162.743 109.923 162.743 109.382C162.743 108.84 163.168 108.415 163.709 108.415H166.03C166.571 108.415 166.996 108.84 166.996 109.382C166.996 109.923 166.552 110.349 166.03 110.349ZM157.909 110.349H155.588C155.047 110.349 154.622 109.923 154.622 109.382C154.622 108.84 155.047 108.415 155.588 108.415H157.909C158.45 108.415 158.875 108.84 158.875 109.382C158.875 109.923 158.431 110.349 157.909 110.349ZM149.788 110.349H147.468C146.926 110.349 146.501 109.923 146.501 109.382C146.501 108.84 146.926 108.415 147.468 108.415H149.788C150.329 108.415 150.755 108.84 150.755 109.382C150.755 109.923 150.31 110.349 149.788 110.349Z" fill="#120D3D"/>
<path d="M119.041 53.934H116.721C116.179 53.934 115.754 53.5085 115.754 52.967C115.754 52.4255 116.179 52 116.721 52H119.041C119.582 52 120.008 52.4255 120.008 52.967C120.008 53.5085 119.563 53.934 119.041 53.934ZM110.92 53.934H108.6C108.058 53.934 107.633 53.5085 107.633 52.967C107.633 52.4255 108.058 52 108.6 52H110.92C111.461 52 111.887 52.4255 111.887 52.967C111.887 53.5085 111.442 53.934 110.92 53.934ZM102.799 53.934H100.479C99.9374 53.934 99.512 53.5085 99.512 52.967C99.512 52.4255 99.9374 52 100.479 52H102.799C103.34 52 103.766 52.4255 103.766 52.967C103.766 53.5085 103.321 53.934 102.799 53.934ZM94.6782 53.934H92.3579C91.8165 53.934 91.3911 53.5085 91.3911 52.967C91.3911 52.4255 91.8165 52 92.3579 52H94.6782C95.2196 52 95.6449 52.4255 95.6449 52.967C95.6449 53.5085 95.2002 53.934 94.6782 53.934ZM86.5572 53.934H84.237C83.6956 53.934 83.2702 53.5085 83.2702 52.967C83.2702 52.4255 83.6956 52 84.237 52H86.5572C87.0986 52 87.524 52.4255 87.524 52.967C87.524 53.5085 87.0793 53.934 86.5572 53.934ZM78.4363 53.934H76.116C75.5746 53.934 75.1493 53.5085 75.1493 52.967C75.1493 52.4255 75.5746 52 76.116 52H78.4363C78.9777 52 79.4031 52.4255 79.4031 52.967C79.4031 53.5085 78.9584 53.934 78.4363 53.934ZM70.3154 53.934H67.9951C67.4537 53.934 67.0283 53.5085 67.0283 52.967C67.0283 52.4255 67.4537 52 67.9951 52H70.3154C70.8568 52 71.2821 52.4255 71.2821 52.967C71.2821 53.5085 70.8374 53.934 70.3154 53.934Z" fill="#120D3D"/>
<path d="M119.041 104.276H116.72C116.179 104.276 115.754 103.851 115.754 103.309C115.754 102.768 116.179 102.342 116.72 102.342H119.041C119.582 102.342 120.007 102.768 120.007 103.309C120.007 103.851 119.563 104.276 119.041 104.276ZM110.92 104.276H108.599C108.058 104.276 107.633 103.851 107.633 103.309C107.633 102.768 108.058 102.342 108.599 102.342H110.92C111.461 102.342 111.886 102.768 111.886 103.309C111.886 103.851 111.442 104.276 110.92 104.276ZM102.799 104.276H100.478C99.937 104.276 99.5117 103.851 99.5117 103.309C99.5117 102.768 99.937 102.342 100.478 102.342H102.799C103.34 102.342 103.765 102.768 103.765 103.309C103.765 103.851 103.321 104.276 102.799 104.276ZM94.6778 104.276H92.3575C91.8161 104.276 91.3907 103.851 91.3907 103.309C91.3907 102.768 91.8161 102.342 92.3575 102.342H94.6778C95.2192 102.342 95.6445 102.768 95.6445 103.309C95.6445 103.851 95.1998 104.276 94.6778 104.276ZM86.5568 104.276H84.2366C83.6952 104.276 83.2698 103.851 83.2698 103.309C83.2698 102.768 83.6952 102.342 84.2366 102.342H86.5568C87.0982 102.342 87.5236 102.768 87.5236 103.309C87.5236 103.851 87.0789 104.276 86.5568 104.276ZM78.4359 104.276H78.2812C77.7398 104.276 77.3145 103.851 77.3145 103.309C77.3145 102.768 77.7398 102.342 78.2812 102.342H78.4359C78.9773 102.342 79.4027 102.768 79.4027 103.309C79.4027 103.851 78.958 104.276 78.4359 104.276Z" fill="#120D3D"/>
<path d="M77.2954 105.127C76.754 105.127 76.3286 104.701 76.3286 104.16V52.967C76.3286 52.4255 76.754 52 77.2954 52C77.8368 52 78.2622 52.4255 78.2622 52.967V104.16C78.2622 104.701 77.8368 105.127 77.2954 105.127Z" fill="#120D3D"/>
<path d="M251.276 160.033H185.149C184.608 160.033 184.182 160.459 184.182 161V185.369C184.182 185.91 184.608 186.336 185.149 186.336H251.276C251.818 186.336 252.243 185.91 252.243 185.369V161C252.243 160.478 251.799 160.033 251.276 160.033Z" fill="#120D3D"/>
<path d="M284.94 151.118H193.831V175.486H284.94V151.118Z" fill="#E8EDF9"/>
<path d="M284.94 176.453H193.831C193.289 176.453 192.864 176.027 192.864 175.486V151.117C192.864 150.576 193.289 150.15 193.831 150.15H284.94C285.481 150.15 285.906 150.576 285.906 151.117V175.486C285.906 176.027 285.462 176.453 284.94 176.453ZM194.797 174.519H283.973V152.084H194.797V174.519Z" fill="#120D3D"/>
<path d="M251.276 52.9668L327.033 119.109V52.9668H251.276ZM315.238 92.3236L284.437 65.4217H315.238V92.3236Z" fill="#4C63F6"/>
<path d="M327.033 120.057C326.801 120.057 326.569 119.98 326.395 119.825L250.639 53.6826C250.329 53.4118 250.232 52.9863 250.368 52.6189C250.503 52.2321 250.871 52 251.277 52H327.033C327.575 52 328 52.4255 328 52.967V119.11C328 119.496 327.787 119.825 327.439 119.999C327.304 120.038 327.169 120.057 327.033 120.057ZM253.848 53.934L326.066 116.982V53.934H253.848ZM315.239 93.2908C315.007 93.2908 314.774 93.2135 314.6 93.0587L283.799 66.1569C283.49 65.8861 283.393 65.4606 283.528 65.0932C283.664 64.7064 284.031 64.4743 284.437 64.4743H315.239C315.78 64.4743 316.205 64.8998 316.205 65.4413V92.3432C316.205 92.73 315.993 93.0587 315.645 93.2328C315.509 93.2521 315.374 93.2908 315.239 93.2908ZM287.009 66.3889L314.272 90.1964V66.3889H287.009Z" fill="#120D3D"/>
</svg>
