<svg width="370" height="222" viewBox="0 0 370 222" fill="none" xmlns="http://www.w3.org/2000/svg">
<path d="M192.036 187.149C181.888 187.149 173.652 178.915 173.652 168.769C173.652 158.623 181.888 150.388 192.036 150.388C202.183 150.388 210.419 158.623 210.419 168.769C210.419 178.915 202.183 187.149 192.036 187.149Z" fill="#4C63F6"/>
<path d="M192.035 188.134C181.356 188.134 172.667 179.446 172.667 168.768C172.667 158.091 181.356 149.403 192.035 149.403C202.715 149.403 211.404 158.091 211.404 168.768C211.404 179.446 202.715 188.134 192.035 188.134ZM192.035 151.353C182.44 151.353 174.637 159.155 174.637 168.749C174.637 178.343 182.44 186.164 192.035 186.164C201.631 186.164 209.434 178.363 209.434 168.768C209.434 159.174 201.631 151.353 192.035 151.353Z" fill="#383A48"/>
<path d="M191.78 175.428C191.445 175.428 191.169 175.27 190.992 175.014L184.962 166.661C184.647 166.227 184.745 165.597 185.179 165.282C185.612 164.967 186.243 165.065 186.558 165.498L191.799 172.807L199.129 163.745C199.464 163.331 200.095 163.253 200.509 163.607C200.922 163.942 201.001 164.573 200.646 164.986L192.509 175.053C192.351 175.309 192.075 175.428 191.78 175.428Z" fill="#383A48"/>
<path d="M139.938 188.213C139.347 188.213 138.776 188.194 138.204 188.135C132.825 187.622 127.998 184.746 124.963 180.254L87.5257 124.758L84.846 120.798C79.2895 112.543 81.4766 101.294 89.7326 95.7389C97.7718 90.3212 108.57 92.1731 114.323 99.9548C114.481 100.152 114.638 100.388 114.796 100.625L142.657 141.917L203.07 81.5151C206.478 78.1069 211.01 76.2354 215.838 76.2354C220.665 76.2354 225.197 78.1069 228.606 81.5151C232.015 84.9233 233.887 89.4544 233.887 94.2811C233.887 99.1077 232.015 103.639 228.606 107.047L152.706 182.934C149.357 186.302 144.687 188.213 139.938 188.213ZM99.8407 94.5963C96.7472 94.5963 93.6143 95.5025 90.836 97.3543C83.4864 102.319 81.5357 112.327 86.5011 119.675L89.1809 123.635L126.618 179.131C129.318 183.131 133.613 185.692 138.421 186.145C138.933 186.204 139.446 186.224 139.958 186.224C144.194 186.224 148.332 184.51 151.327 181.515L227.227 105.629C230.261 102.595 231.936 98.5561 231.936 94.2614C231.936 89.9666 230.261 85.928 227.227 82.8941C224.192 79.8603 220.153 78.1857 215.857 78.1857C211.562 78.1857 207.523 79.8603 204.488 82.8941L143.209 144.143C142.992 144.36 142.716 144.458 142.421 144.419C142.125 144.399 141.869 144.242 141.692 143.986L113.18 101.708C113.042 101.491 112.904 101.314 112.766 101.117C109.614 96.8618 104.767 94.5963 99.8407 94.5963Z" fill="#120D3D"/>
<path d="M113.535 100.526C110.245 112.406 100.511 121.626 88.3535 124.207L85.6738 120.247C80.3932 112.426 82.4621 101.827 90.2845 96.547C97.8903 91.4248 108.136 93.2373 113.535 100.526Z" fill="#120D3D"/>
<path d="M87.9001 125.31L84.846 120.798C79.2895 112.544 81.4766 101.295 89.7326 95.739C97.7718 90.3214 108.57 92.1732 114.323 99.9549L114.619 100.349L114.481 100.822C112.806 106.83 109.515 112.307 104.944 116.602C100.353 120.916 94.6783 123.891 88.5503 125.191L87.9001 125.31ZM99.8407 94.5964C96.7472 94.5964 93.6143 95.5026 90.836 97.3545C83.4864 102.319 81.5357 112.327 86.5011 119.675L88.8065 123.083C94.3433 121.783 99.4466 119.045 103.604 115.124C107.801 111.184 110.855 106.2 112.471 100.723C109.299 96.724 104.609 94.5964 99.8407 94.5964Z" fill="#120D3D"/>
<path d="M142.52 143.454L146.973 149.758L157.297 128.678L142.52 143.454Z" fill="#120D3D"/>
<path d="M146.972 150.743C146.657 150.743 146.361 150.586 146.164 150.329L141.692 144.025C141.416 143.631 141.455 143.099 141.79 142.764L156.568 127.989C156.903 127.654 157.455 127.595 157.829 127.891C158.223 128.166 158.361 128.698 158.144 129.132L147.819 150.211C147.662 150.526 147.366 150.723 147.012 150.763C147.031 150.743 147.012 150.743 146.972 150.743ZM143.8 143.552L146.815 147.827L153.809 133.545L143.8 143.552Z" fill="#120D3D"/>
<path d="M74.3244 114.653C92.7371 114.653 107.663 99.7287 107.663 81.3192C107.663 62.9097 92.7371 47.9858 74.3244 47.9858C55.9118 47.9858 40.9854 62.9097 40.9854 81.3192C40.9854 99.7287 55.9118 114.653 74.3244 114.653Z" fill="#E8EDF9"/>
<path d="M74.3243 115.637C55.3888 115.637 40 100.251 40 81.3184C40 62.3861 55.3888 47 74.3243 47C93.2597 47 108.648 62.3861 108.648 81.3184C108.648 100.251 93.2597 115.637 74.3243 115.637ZM74.3243 48.9701C56.4922 48.9701 41.9704 63.4894 41.9704 81.3184C41.9704 99.1474 56.4922 113.667 74.3243 113.667C92.1563 113.667 106.678 99.1474 106.678 81.3184C106.678 63.4894 92.176 48.9701 74.3243 48.9701Z" fill="#120D3D"/>
<path d="M63.6641 80.0183C65.6337 80.0183 67.2305 78.4218 67.2305 76.4525C67.2305 74.4832 65.6337 72.8867 63.6641 72.8867C61.6944 72.8867 60.0977 74.4832 60.0977 76.4525C60.0977 78.4218 61.6944 80.0183 63.6641 80.0183Z" fill="#120D3D"/>
<path d="M84.9839 80.0183C86.9536 80.0183 88.5503 78.4218 88.5503 76.4525C88.5503 74.4832 86.9536 72.8867 84.9839 72.8867C83.0142 72.8867 81.4175 74.4832 81.4175 76.4525C81.4175 78.4218 83.0142 80.0183 84.9839 80.0183Z" fill="#120D3D"/>
<path d="M74.3237 95.9368C69.3386 95.9368 64.7673 93.0014 62.6983 88.4702C62.4619 87.9777 62.6983 87.3867 63.1909 87.17C63.6835 86.9336 64.2747 87.17 64.4914 87.6625C66.245 91.5041 70.107 93.9667 74.3237 93.9667C78.5403 93.9667 82.4023 91.4844 84.1559 87.6625C84.3924 87.17 84.9638 86.9533 85.4564 87.17C85.949 87.4064 86.1657 87.9777 85.949 88.4702C83.8801 93.0014 79.3088 95.9368 74.3237 95.9368Z" fill="#120D3D"/>
<path d="M329.515 187.326H261.142C260.895 187.326 260.648 187.231 260.477 187.041L247.285 173.857C247.057 173.629 246.962 173.287 247.038 172.964L260.23 118.232C260.325 117.814 260.724 117.51 261.161 117.51H329.534C330.067 117.51 330.485 117.928 330.485 118.46V186.376C330.466 186.908 330.029 187.326 329.515 187.326ZM261.522 185.426H328.546V119.391H261.865L248.996 172.888L261.522 185.426Z" fill="#120D3D"/>
<path d="M261.143 131.644L316.324 118.441L329.516 131.644V115.021L316.324 101.837L261.143 115.021V131.644Z" fill="#120D3D"/>
<path d="M329.515 132.594C329.268 132.594 329.021 132.499 328.85 132.309L316.038 119.504L261.351 132.556C261.066 132.632 260.762 132.556 260.534 132.385C260.305 132.214 260.172 131.929 260.172 131.644V115.04C260.172 114.603 260.476 114.223 260.895 114.109L316.076 100.925C316.399 100.849 316.741 100.944 316.969 101.172L330.161 114.356C330.332 114.527 330.446 114.774 330.446 115.021V131.625C330.446 132.005 330.218 132.347 329.857 132.499C329.762 132.556 329.629 132.594 329.515 132.594ZM262.092 115.781V130.428L316.095 117.529C316.418 117.453 316.76 117.548 316.988 117.776L328.565 129.345V115.42L316.019 102.881L262.092 115.781Z" fill="#120D3D"/>
<path d="M316.304 105.256H247.931V173.172H316.304V105.256Z" fill="#E8EDF9"/>
<path d="M316.324 174.141H247.95C247.418 174.141 247 173.723 247 173.191V105.256C247 104.724 247.418 104.306 247.95 104.306H316.324C316.856 104.306 317.274 104.724 317.274 105.256V173.172C317.274 173.704 316.837 174.141 316.324 174.141ZM248.882 172.242H315.354V106.206H248.882V172.242Z" fill="#120D3D"/>
<path d="M316.304 101.837H247.931V118.441H316.304V101.837Z" fill="#120D3D"/>
<path d="M316.324 119.39H247.95C247.418 119.39 247 118.972 247 118.44V101.837C247 101.305 247.418 100.887 247.95 100.887H316.324C316.856 100.887 317.274 101.305 317.274 101.837V118.44C317.274 118.972 316.837 119.39 316.324 119.39ZM248.882 117.491H315.354V102.786H248.882V117.491Z" fill="#120D3D"/>
<path d="M304.101 129.136H257.227V144.429H304.101V129.136Z" fill="#4C63F6"/>
<path d="M329.515 187.326C329.268 187.326 329.021 187.231 328.85 187.041L315.658 173.856C315.278 173.476 315.278 172.888 315.658 172.508C316.038 172.128 316.628 172.128 317.008 172.508L330.2 185.692C330.58 186.072 330.58 186.661 330.2 187.041C329.99 187.231 329.762 187.326 329.515 187.326Z" fill="#120D3D"/>
<path d="M92.5386 168.209L87.8974 164.954L90.6907 159.961C90.9056 159.565 90.8841 159.081 90.6048 158.729C90.3254 158.377 89.8742 158.223 89.4445 158.355L84.0727 160.049L82.0099 154.704C81.838 154.286 81.4512 154 81 154C80.5488 154 80.162 154.286 79.9901 154.704L77.9273 160.049L72.5555 158.355C72.1258 158.223 71.6746 158.377 71.3952 158.729C71.1159 159.081 71.0944 159.565 71.3093 159.961L74.1026 164.954L69.4614 168.209C69.0961 168.473 68.9242 168.913 69.0316 169.353C69.1391 169.793 69.4829 170.123 69.9126 170.189L75.4778 171.069L75.0695 176.81C75.048 177.25 75.2844 177.69 75.6712 177.887C76.0579 178.085 76.5521 178.019 76.8745 177.711L81 173.796L85.1255 177.711C85.3189 177.909 85.5983 177.997 85.8561 177.997C86.0065 177.997 86.1784 177.953 86.3288 177.887C86.7156 177.69 86.9734 177.272 86.9305 176.81L86.5222 171.069L92.0874 170.189C92.5171 170.123 92.8824 169.793 92.9684 169.353C93.0758 168.935 92.9039 168.473 92.5386 168.209Z" fill="#120D3D"/>
</svg>
