<svg width="370" height="222" viewBox="0 0 370 222" fill="none" xmlns="http://www.w3.org/2000/svg">
<path d="M140.337 194.101H41.0078C40.4434 194.101 40 193.658 40 193.094V86.2265C40 85.6622 40.4434 85.2188 41.0078 85.2188H140.337C140.901 85.2188 141.344 85.6622 141.344 86.2265V193.094C141.344 193.658 140.901 194.101 140.337 194.101ZM42.0156 192.086H139.329V87.2343H42.0156V192.086Z" fill="#120D3D"/>
<path d="M140.337 86.2266H41.0078V107.209H140.337V86.2266Z" fill="#4C63F6"/>
<path d="M140.337 108.217H41.0078C40.4434 108.217 40 107.773 40 107.209V86.2265C40 85.6622 40.4434 85.2188 41.0078 85.2188H140.337C140.901 85.2188 141.344 85.6622 141.344 86.2265V107.209C141.344 107.753 140.901 108.217 140.337 108.217ZM42.0156 106.201H139.329V87.2343H42.0156V106.201Z" fill="#120D3D"/>
<path d="M51.0256 99.6908C52.6731 99.6908 54.0087 98.3552 54.0087 96.7077C54.0087 95.0602 52.6731 93.7246 51.0256 93.7246C49.3781 93.7246 48.0425 95.0602 48.0425 96.7077C48.0425 98.3552 49.3781 99.6908 51.0256 99.6908Z" fill="#4C63F6"/>
<path d="M51.0256 100.7C48.8285 100.7 47.0347 98.9057 47.0347 96.7087C47.0347 94.5117 48.8285 92.7178 51.0256 92.7178C53.2226 92.7178 54.9963 94.5117 54.9963 96.7087C54.9963 98.9057 53.2226 100.7 51.0256 100.7ZM51.0256 94.7535C49.9371 94.7535 49.0503 95.6404 49.0503 96.7288C49.0503 97.8172 49.9371 98.7041 51.0256 98.7041C52.114 98.7041 53.0008 97.8172 53.0008 96.7288C53.0008 95.6404 52.114 94.7535 51.0256 94.7535Z" fill="#120D3D"/>
<path d="M60.1359 99.6908C61.7834 99.6908 63.119 98.3552 63.119 96.7077C63.119 95.0602 61.7834 93.7246 60.1359 93.7246C58.4884 93.7246 57.1528 95.0602 57.1528 96.7077C57.1528 98.3552 58.4884 99.6908 60.1359 99.6908Z" fill="#4C63F6"/>
<path d="M60.1359 100.699C57.9389 100.699 56.145 98.9047 56.145 96.7077C56.145 94.5107 57.9389 92.7168 60.1359 92.7168C62.3329 92.7168 64.1268 94.5107 64.1268 96.7077C64.1066 98.9047 62.3329 100.699 60.1359 100.699ZM60.1359 94.7525C59.0475 94.7525 58.1606 95.6394 58.1606 96.7278C58.1606 97.8163 59.0475 98.7031 60.1359 98.7031C61.2243 98.7031 62.1112 97.8163 62.1112 96.7278C62.1112 95.6394 61.2243 94.7525 60.1359 94.7525Z" fill="#120D3D"/>
<path d="M72.1737 97.1855C72.4377 95.5592 71.3333 94.0269 69.707 93.763C68.0808 93.4991 66.5485 94.6034 66.2845 96.2297C66.0206 97.856 67.125 99.3883 68.7512 99.6522C70.3775 99.9161 71.9098 98.8117 72.1737 97.1855Z" fill="#4C63F6"/>
<path d="M69.2258 100.699C67.0287 100.699 65.2349 98.9047 65.2349 96.7077C65.2349 94.5107 67.0287 92.7168 69.2258 92.7168C71.4228 92.7168 73.2166 94.5107 73.2166 96.7077C73.2166 98.9047 71.4228 100.699 69.2258 100.699ZM69.2258 94.7525C68.1373 94.7525 67.2505 95.6394 67.2505 96.7278C67.2505 97.8163 68.1373 98.7031 69.2258 98.7031C70.3142 98.7031 71.201 97.8163 71.201 96.7278C71.201 95.6394 70.3142 94.7525 69.2258 94.7525Z" fill="#120D3D"/>
<path d="M294.208 164.714H189.74C189.175 164.714 188.732 164.27 188.732 163.706V56.7383C188.732 56.1739 189.175 55.7305 189.74 55.7305H294.208C294.773 55.7305 295.216 56.1739 295.216 56.7383V163.706C295.216 164.25 294.752 164.714 294.208 164.714ZM190.727 162.698H293.18V57.7461H190.727V162.698Z" fill="#120D3D"/>
<path d="M294.188 56.7383H189.72V77.8013H294.188V56.7383Z" fill="#E8EDF9"/>
<path d="M294.208 78.8091H189.74C189.175 78.8091 188.732 78.3656 188.732 77.8013V56.7383C188.732 56.1739 189.175 55.7305 189.74 55.7305H294.208C294.773 55.7305 295.216 56.1739 295.216 56.7383V77.8013C295.216 78.3656 294.752 78.8091 294.208 78.8091ZM190.727 76.7935H293.18V57.7461H190.727V76.7935Z" fill="#120D3D"/>
<path d="M281.19 64.2462L279.765 65.6714L284.397 70.3034L285.822 68.8782L281.19 64.2462Z" fill="#120D3D"/>
<path d="M284.441 64.1961L279.809 68.8281L281.234 70.2536L285.866 65.6216L284.441 64.1961Z" fill="#120D3D"/>
<path d="M276.571 70.8072H269.497V63.7324H276.571V70.8072ZM271.532 68.7916H274.576V65.748H271.532V68.7916Z" fill="#120D3D"/>
<path d="M265.526 68.7915H260.467V70.8071H265.526V68.7915Z" fill="#120D3D"/>
<path d="M68.3999 141.412L141.969 120.732L155.393 169.933L93.6957 186.219L68.3999 141.412Z" fill="#E8EDF9"/>
<path d="M93.6957 187.227C93.3329 187.227 92.9902 187.045 92.8088 186.723L67.5332 141.896C67.372 141.634 67.3518 141.311 67.4728 141.009C67.5937 140.727 67.8356 140.505 68.1379 140.425L141.707 119.765C141.969 119.684 142.251 119.724 142.473 119.866C142.715 120.007 142.876 120.208 142.957 120.47L156.361 169.671C156.441 169.933 156.401 170.215 156.26 170.437C156.119 170.679 155.897 170.84 155.635 170.9L93.9376 187.187C93.8771 187.207 93.7763 187.227 93.6957 187.227ZM69.9116 142.037L94.1996 185.05L154.164 169.228L141.264 121.982L69.9116 142.037Z" fill="#120D3D"/>
<path d="M125.079 177.713L127.84 157.98L152.309 170.819L125.079 177.713Z" fill="#120D3D"/>
<path d="M125.078 178.721C124.836 178.721 124.595 178.64 124.413 178.459C124.171 178.237 124.05 177.894 124.091 177.572L126.852 157.839C126.892 157.517 127.094 157.234 127.396 157.073C127.678 156.932 128.041 156.932 128.323 157.073L152.793 169.933C153.156 170.134 153.377 170.537 153.317 170.94C153.277 171.364 152.974 171.706 152.571 171.807L125.32 178.7C125.24 178.7 125.159 178.721 125.078 178.721ZM128.646 159.532L126.288 176.362L149.527 170.497L128.646 159.532Z" fill="#120D3D"/>
<path d="M116.129 127.927L118.588 138.448L105.87 130.93L116.129 127.927Z" fill="#120D3D"/>
<path d="M118.588 139.457C118.407 139.457 118.226 139.416 118.084 139.316L105.366 131.797C105.023 131.596 104.822 131.193 104.882 130.81C104.923 130.407 105.205 130.084 105.608 129.963L115.867 126.98C116.129 126.899 116.411 126.94 116.653 127.081C116.895 127.222 117.056 127.444 117.117 127.726L119.596 138.227C119.697 138.63 119.536 139.033 119.213 139.275C119.012 139.376 118.81 139.457 118.588 139.457ZM108.389 131.233L117.077 136.373L115.384 129.197L108.389 131.233Z" fill="#120D3D"/>
<path d="M153.457 109.969L128.403 116.318C120.764 118.253 116.149 126.194 118.144 134.035L122.095 149.676C125.864 164.591 140.779 173.742 155.332 170.074C169.884 166.385 178.652 151.248 174.883 136.333L170.933 120.692C168.937 112.831 161.096 108.034 153.457 109.969Z" fill="#F6E049"/>
<path d="M148.781 171.888C143.682 171.888 138.663 170.477 134.148 167.695C127.637 163.704 123.001 157.396 121.127 149.918L117.176 134.277C115.06 125.892 119.998 117.406 128.182 115.33L153.215 109.001C161.399 106.925 169.784 112.065 171.9 120.45L175.85 136.091C179.761 151.53 170.67 167.212 155.574 171.041C153.336 171.606 151.038 171.888 148.781 171.888ZM153.457 109.969L153.699 110.936L128.645 117.285C121.55 119.079 117.257 126.476 119.111 133.793L123.062 149.434C124.816 156.388 129.129 162.273 135.196 166.002C141.243 169.711 148.317 170.82 155.09 169.106C169.098 165.559 177.544 150.966 173.895 136.595L169.945 120.954C168.09 113.657 160.814 109.182 153.719 110.976L153.457 109.969Z" fill="#120D3D"/>
<path d="M170.51 118.193L175.146 136.495C176.597 142.199 176.133 147.944 174.178 153.063C173.291 155.381 172.082 157.578 170.631 159.574H170.611L169.16 159.291L151.543 155.825L145.537 154.656L123.325 150.302L122.216 150.08L121.793 150L117.157 131.698C116.996 131.093 116.895 130.489 116.814 129.884C116.734 129.199 116.693 128.533 116.714 127.868C116.835 121.983 120.563 116.621 126.227 114.565C126.671 114.404 127.134 114.263 127.618 114.142L152.954 107.732C153.196 107.672 153.418 107.611 153.66 107.571C153.841 107.531 154.022 107.511 154.204 107.47C161.5 106.281 168.656 110.897 170.51 118.193Z" fill="#F6E049"/>
<path d="M170.61 160.581C170.57 160.581 170.53 160.581 170.469 160.581C170.449 160.581 170.409 160.581 170.389 160.561L121.571 150.987C121.188 150.906 120.886 150.624 120.785 150.241L116.149 131.939C115.988 131.294 115.867 130.649 115.786 130.004C115.705 129.299 115.665 128.553 115.685 127.828C115.806 121.478 119.898 115.754 125.864 113.597C126.348 113.416 126.852 113.275 127.356 113.134L152.692 106.724C152.954 106.664 153.216 106.603 153.458 106.543C153.619 106.502 153.82 106.462 154.022 106.442C157.811 105.837 161.701 106.664 164.926 108.78C168.192 110.917 170.51 114.162 171.457 117.931L176.093 136.233C177.544 141.957 177.181 147.903 175.085 153.405C174.158 155.804 172.928 158.082 171.396 160.158C171.215 160.42 170.913 160.581 170.61 160.581ZM122.599 149.132L123.526 149.314L170.167 158.444C171.417 156.651 172.445 154.736 173.231 152.7C175.186 147.58 175.508 142.058 174.178 136.757L169.542 118.455C168.716 115.17 166.7 112.348 163.858 110.514C161.036 108.679 157.67 107.954 154.365 108.478C154.183 108.498 154.022 108.538 153.881 108.558C153.659 108.599 153.437 108.659 153.216 108.699L127.88 115.109C127.436 115.23 127.013 115.351 126.59 115.512C121.41 117.387 117.842 122.365 117.741 127.888C117.721 128.513 117.761 129.138 117.842 129.762C117.902 130.327 118.023 130.891 118.165 131.456L122.599 149.132Z" fill="#120D3D"/>
<path d="M161.661 83.0012L171.457 121.701C171.517 121.983 171.578 122.245 171.618 122.527C171.618 122.567 171.638 122.608 171.638 122.648C171.679 122.991 171.699 123.333 171.679 123.676C171.658 124.361 171.537 125.047 171.336 125.671C170.61 127.989 168.716 129.884 166.196 130.509C162.306 131.497 158.355 129.138 157.388 125.248L147.592 86.5487C147.31 85.4401 147.31 84.3517 147.511 83.3036C147.592 82.9408 147.693 82.5981 147.814 82.2555C148.62 80.0786 150.434 78.3251 152.853 77.7204C156.743 76.7529 160.673 79.1111 161.661 83.0012Z" fill="#F6E049"/>
<path d="M164.423 131.759C160.734 131.759 157.348 129.259 156.401 125.51L146.605 86.8107C146.303 85.5811 146.262 84.3516 146.524 83.102C146.605 82.6787 146.726 82.2756 146.867 81.9128C147.814 79.3529 149.951 77.418 152.591 76.7528C154.728 76.2086 156.965 76.5311 158.86 77.6598C160.754 78.7886 162.105 80.6026 162.649 82.7391L172.445 121.439C172.526 121.741 172.586 122.063 172.626 122.366C172.626 122.406 172.646 122.467 172.646 122.507C172.687 122.91 172.707 123.293 172.707 123.676C172.687 124.462 172.566 125.228 172.324 125.954C171.457 128.695 169.26 130.751 166.479 131.476C165.773 131.678 165.088 131.759 164.423 131.759ZM154.647 78.5265C154.123 78.5265 153.619 78.587 153.095 78.7281C151.1 79.232 149.467 80.6832 148.762 82.6384C148.661 82.9206 148.56 83.2229 148.5 83.5252C148.298 84.4524 148.318 85.3997 148.56 86.3269L158.356 125.026C159.202 128.372 162.609 130.408 165.955 129.561C168.071 129.017 169.724 127.465 170.389 125.389C170.57 124.825 170.671 124.24 170.691 123.656C170.691 123.353 170.691 123.071 170.651 122.789C170.651 122.749 170.651 122.729 170.631 122.708V122.688C170.591 122.446 170.55 122.205 170.49 121.983L160.694 83.2834C160.291 81.6709 159.263 80.3003 157.832 79.4537C156.844 78.8289 155.756 78.5265 154.647 78.5265Z" fill="#120D3D"/>
<path d="M151.584 128.975C147.694 129.963 143.743 127.605 142.776 123.715L132.275 82.1932C131.287 78.3031 133.645 74.3525 137.535 73.385C141.425 72.3974 145.376 74.7556 146.344 78.6457L156.845 120.167C157.832 124.037 155.474 127.988 151.584 128.975Z" fill="#E8EDF9"/>
<path d="M149.789 130.205C148.318 130.205 146.867 129.802 145.577 129.036C143.682 127.907 142.332 126.114 141.787 123.957L131.286 82.4355C130.178 78.0214 132.858 73.5064 137.273 72.3978C139.409 71.8536 141.646 72.1761 143.541 73.3049C145.436 74.4336 146.786 76.2275 147.33 78.3842L157.832 119.905C158.376 122.042 158.053 124.279 156.925 126.174C155.796 128.069 154.002 129.419 151.845 129.963C151.16 130.125 150.475 130.205 149.789 130.205ZM139.308 74.1514C138.784 74.1514 138.28 74.2119 137.756 74.353C134.41 75.1995 132.375 78.6059 133.221 81.9518L143.722 123.473C144.126 125.086 145.154 126.456 146.585 127.303C148.016 128.149 149.709 128.411 151.321 127.988C152.934 127.585 154.304 126.557 155.151 125.126C155.997 123.695 156.259 122.002 155.836 120.389L145.335 78.8679C144.932 77.2554 143.904 75.8848 142.473 75.0383C141.525 74.4537 140.417 74.1514 139.308 74.1514Z" fill="#120D3D"/>
<path d="M138.201 132.362C134.311 133.349 130.36 130.991 129.393 127.101L117.279 79.2508C116.291 75.3607 118.65 71.4101 122.54 70.4426C126.43 69.455 130.38 71.8132 131.348 75.7033L143.462 123.554C144.449 127.424 142.091 131.374 138.201 132.362Z" fill="#E8EDF9"/>
<path d="M136.407 133.591C134.935 133.591 133.484 133.188 132.194 132.422C130.3 131.294 128.949 129.5 128.405 127.343L116.291 79.4927C115.183 75.0785 117.863 70.5635 122.277 69.455C124.414 68.9108 126.651 69.2332 128.546 70.362C130.441 71.4907 131.791 73.2846 132.335 75.4413L144.449 123.292C145.558 127.706 142.877 132.221 138.463 133.329C137.777 133.511 137.092 133.591 136.407 133.591ZM124.333 71.2085C123.809 71.2085 123.305 71.269 122.781 71.4101C119.435 72.2566 117.4 75.663 118.246 79.0089L130.36 126.859C130.763 128.472 131.791 129.842 133.222 130.689C134.653 131.535 136.346 131.797 137.959 131.374C141.305 130.528 143.34 127.121 142.494 123.775L130.38 75.925C129.977 74.3126 128.949 72.942 127.518 72.0954C126.551 71.5109 125.442 71.2085 124.333 71.2085Z" fill="#120D3D"/>
<path d="M126.066 137.684C122.176 138.671 118.931 139.054 117.943 135.164L106.757 90.9017C105.769 87.0116 108.127 83.061 112.017 82.0935C115.907 81.1059 119.858 83.4641 120.825 87.3542L131.327 128.876C132.314 132.746 129.956 136.696 126.066 137.684Z" fill="#E8EDF9"/>
<path d="M122.034 139.356C119.837 139.356 117.761 138.53 116.975 135.406L105.789 91.1432C104.68 86.7291 107.361 82.2141 111.775 81.1056C116.189 79.997 120.704 82.6777 121.813 87.0919L132.314 128.613C133.423 133.027 130.742 137.542 126.328 138.651C125.098 138.953 123.546 139.356 122.034 139.356ZM113.791 82.8591C113.287 82.8591 112.763 82.9196 112.259 83.0607C108.913 83.9072 106.877 87.3136 107.724 90.6595L118.91 134.922C119.555 137.482 121.168 137.885 125.804 136.716C129.149 135.869 131.185 132.463 130.339 129.117L119.837 87.5958C119.132 84.7538 116.592 82.8591 113.791 82.8591Z" fill="#120D3D"/>
<path d="M153.277 110.634L129.049 116.762C121.652 118.636 117.218 126.356 119.153 133.975L123.003 149.193C126.671 163.705 141.103 172.634 155.172 169.067C169.24 165.499 177.686 150.805 174.017 136.293L170.168 121.075C168.253 113.456 160.674 108.78 153.277 110.634Z" fill="#E8EDF9"/>
<path d="M147.693 148.91C144.569 130.306 126.792 138.691 121.672 134.156L109.417 123.413C105.91 120.409 100.649 120.833 97.646 124.32C94.6427 127.827 95.066 133.087 98.553 136.091C98.553 136.091 126.449 162.777 140.074 169.328" fill="#E8EDF9"/>
<path d="M140.074 170.336C139.933 170.336 139.772 170.296 139.631 170.235C133.906 167.474 125.118 161.024 113.549 151.027C105.184 143.791 98.2907 137.24 97.8675 136.857C93.9774 133.491 93.5138 127.605 96.8597 123.675C98.4923 121.78 100.75 120.631 103.249 120.43C105.748 120.228 108.167 121.035 110.062 122.647L122.317 133.39C123.728 134.64 126.549 134.741 129.815 134.841C136.829 135.083 146.443 135.406 148.681 148.749C148.781 149.293 148.399 149.817 147.854 149.918C147.31 150.019 146.786 149.636 146.685 149.092C144.71 137.381 136.769 137.119 129.734 136.877C126.086 136.756 122.921 136.655 120.966 134.922L108.732 124.179C107.26 122.909 105.345 122.284 103.39 122.445C101.435 122.607 99.6613 123.494 98.3915 124.985C95.7511 128.069 96.1139 132.705 99.1978 135.345C99.2179 135.365 99.2179 135.365 99.2381 135.386C99.5203 135.648 127.174 162.032 140.497 168.441C141.001 168.683 141.203 169.288 140.961 169.792C140.8 170.135 140.457 170.336 140.074 170.336Z" fill="#120D3D"/>
<path d="M169.925 120.149C169.3 121.096 168.433 121.902 167.405 122.487C168.433 122.446 169.481 122.426 170.55 122.467C170.832 122.487 171.114 122.487 171.416 122.507C171.497 122.507 171.557 122.527 171.638 122.527C171.638 122.527 171.638 122.527 171.658 122.527C171.658 122.567 171.678 122.608 171.678 122.648L175.185 136.495C176.637 142.199 175.528 145.384 173.553 150.483C173.512 150.463 173.472 150.443 173.432 150.423C173.089 150.241 172.747 150.06 172.384 149.879C163.959 145.344 136.607 125.369 136.607 125.369C135.841 124.805 135.196 124.139 134.672 123.414C133.201 121.318 132.757 118.657 133.503 116.198C133.563 115.976 133.644 115.734 133.745 115.513C133.987 114.888 134.329 114.283 134.732 113.699C135.015 113.316 135.297 112.973 135.619 112.651C137.191 111.078 139.308 110.252 141.444 110.232C141.686 110.232 141.948 110.232 142.21 110.252C142.754 110.292 143.319 110.393 143.843 110.554C144.73 110.816 145.596 111.24 146.403 111.804L146.866 112.147L147.491 112.61L155.614 118.073L156.42 118.677L157.166 119.221L147.854 82.215C148.66 80.0382 150.474 78.2846 152.893 77.6799C156.783 76.6923 160.734 79.0505 161.721 82.9407L170.731 118.576C170.711 118.617 170.711 118.637 170.691 118.677C170.63 118.818 170.57 118.98 170.509 119.121C170.308 119.524 170.126 119.846 169.925 120.149Z" fill="#120D3D"/>
<path d="M173.513 151.512C173.351 151.512 173.19 151.471 173.049 151.391L172.928 151.33C172.586 151.149 172.223 150.967 171.86 150.766C163.475 146.251 137.091 127.002 135.962 126.196C135.116 125.591 134.39 124.845 133.805 123.999C132.173 121.661 131.669 118.637 132.495 115.916C132.576 115.654 132.657 115.392 132.757 115.15C133.04 114.445 133.422 113.759 133.866 113.135C134.168 112.711 134.511 112.328 134.874 111.966C136.607 110.232 138.925 109.285 141.384 109.265C141.666 109.265 141.948 109.265 142.231 109.305C142.835 109.345 143.46 109.466 144.065 109.648C145.093 109.95 146.06 110.414 146.927 111.059L148.015 111.865L155.453 116.863L146.826 82.5378C146.786 82.3362 146.786 82.1347 146.867 81.9533C147.814 79.3935 149.95 77.4585 152.591 76.7933C154.727 76.2491 156.965 76.5716 158.859 77.7004C160.754 78.8291 162.104 80.6431 162.649 82.7797L171.658 118.415C171.699 118.597 171.699 118.798 171.638 118.96C171.618 119.02 171.598 119.081 171.578 119.121C171.517 119.282 171.437 119.443 171.376 119.605C171.195 119.988 170.993 120.35 170.751 120.713C170.59 120.975 170.389 121.217 170.207 121.459C170.328 121.459 170.449 121.459 170.57 121.479C170.872 121.499 171.154 121.499 171.457 121.519H171.517C171.578 121.519 171.618 121.519 171.679 121.54C171.699 121.54 171.699 121.54 171.719 121.54C172.182 121.58 172.565 121.923 172.626 122.386C172.626 122.426 172.626 122.447 172.646 122.487L176.133 136.274C177.625 142.179 176.536 145.505 174.48 150.887C174.379 151.149 174.158 151.37 173.896 151.471C173.755 151.471 173.634 151.512 173.513 151.512ZM141.505 111.28C141.485 111.28 141.445 111.28 141.424 111.28C139.489 111.3 137.675 112.046 136.305 113.397C136.023 113.679 135.761 113.981 135.519 114.324C135.156 114.808 134.874 115.352 134.652 115.916C134.571 116.118 134.491 116.319 134.45 116.521C133.805 118.677 134.188 121.036 135.478 122.87C135.942 123.535 136.526 124.12 137.171 124.583C137.454 124.785 164.563 144.558 172.848 149.012C172.888 149.032 172.948 149.073 172.989 149.093C174.682 144.578 175.428 141.716 174.178 136.757L170.832 123.495C170.731 123.495 170.63 123.495 170.509 123.475C169.623 123.434 168.655 123.454 167.446 123.495C166.982 123.515 166.559 123.213 166.438 122.749C166.317 122.306 166.519 121.822 166.922 121.6C167.788 121.116 168.534 120.431 169.099 119.584C169.28 119.322 169.441 119.04 169.562 118.758C169.582 118.698 169.623 118.637 169.643 118.577L160.714 83.2433C160.311 81.6308 159.283 80.2602 157.852 79.4136C156.42 78.5671 154.727 78.305 153.115 78.7283C151.22 79.2121 149.648 80.5625 148.902 82.3564L158.134 119.06C158.234 119.464 158.073 119.907 157.71 120.149C157.348 120.391 156.884 120.371 156.541 120.129L155.796 119.584C155.775 119.584 155.775 119.564 155.755 119.544L155.01 118.98L146.907 113.538C146.887 113.538 146.887 113.518 146.867 113.518L145.758 112.691C145.093 112.207 144.327 111.824 143.521 111.603C143.057 111.462 142.573 111.381 142.09 111.341C141.888 111.28 141.686 111.28 141.505 111.28Z" fill="#120D3D"/>
<path d="M166.579 118.253L165.733 114.907C163.778 107.188 168.474 99.3066 176.194 97.3514L201.53 90.9418C209.25 88.9867 217.131 93.683 219.086 101.403L224.79 123.917" fill="#F6E049"/>
<path d="M224.81 124.945C224.366 124.945 223.943 124.643 223.842 124.179L218.138 101.665C216.324 94.4693 208.987 90.1156 201.812 91.9296L176.456 98.3191C172.989 99.2059 170.046 101.383 168.212 104.467C166.378 107.55 165.833 111.179 166.72 114.645L167.567 117.991C167.708 118.536 167.385 119.08 166.841 119.221C166.297 119.362 165.753 119.039 165.612 118.495L164.765 115.149C163.757 111.158 164.362 106.986 166.478 103.439C168.595 99.8912 171.961 97.3717 175.972 96.3639L201.308 89.9543C209.572 87.8581 217.997 92.8769 220.093 101.161L225.797 123.675C225.938 124.219 225.616 124.764 225.072 124.905C224.971 124.925 224.89 124.945 224.81 124.945Z" fill="#120D3D"/>
<path d="M215.518 116.54C211.628 117.527 207.677 115.169 206.71 111.279L196.209 69.7576C195.221 65.8675 197.579 61.917 201.469 60.9495C205.36 59.9618 209.31 62.3201 210.278 66.2102L220.779 107.732C221.746 111.622 219.408 115.572 215.518 116.54Z" fill="#E8EDF9"/>
<path d="M213.724 117.769C210.036 117.769 206.649 115.27 205.702 111.521L195.201 69.9997C194.092 65.5855 196.773 61.0706 201.187 59.962C205.601 58.8534 210.116 61.5342 211.225 65.9483L221.726 107.47C222.27 109.606 221.948 111.844 220.819 113.738C219.69 115.633 217.896 116.983 215.74 117.527C215.075 117.689 214.409 117.769 213.724 117.769ZM203.223 61.7357C202.719 61.7357 202.195 61.7962 201.691 61.9373C198.345 62.7838 196.309 66.1902 197.156 69.5361L207.657 111.057C208.504 114.403 211.91 116.439 215.256 115.593C216.868 115.189 218.239 114.161 219.086 112.73C219.932 111.299 220.194 109.606 219.771 107.994L209.27 66.4724C208.564 63.6304 206.025 61.7357 203.223 61.7357Z" fill="#120D3D"/>
<path d="M200.179 112.186C196.289 113.173 192.338 110.815 191.371 106.925L180.869 65.4036C179.882 61.5135 182.24 57.563 186.13 56.5955C190.02 55.6078 193.971 57.9661 194.938 61.8562L205.44 103.378C206.427 107.247 204.069 111.198 200.179 112.186Z" fill="#E8EDF9"/>
<path d="M198.405 113.416C194.717 113.416 191.33 110.916 190.383 107.167L179.882 65.6461C179.338 63.5096 179.66 61.2723 180.789 59.3776C181.917 57.4829 183.711 56.1325 185.868 55.5883C188.005 55.0441 190.242 55.3666 192.137 56.4953C194.031 57.624 195.382 59.4179 195.926 61.5746L206.427 103.096C207.536 107.51 204.855 112.025 200.441 113.134C199.756 113.335 199.07 113.416 198.405 113.416ZM187.904 57.3821C187.38 57.3821 186.876 57.4426 186.352 57.5837C184.739 57.9868 183.369 59.0148 182.522 60.4459C181.676 61.8769 181.414 63.57 181.837 65.1825L192.338 106.704C193.185 110.05 196.591 112.085 199.937 111.239C203.283 110.392 205.319 106.986 204.472 103.64L193.971 62.1188C193.568 60.5063 192.54 59.1357 191.109 58.2892C190.121 57.6643 189.012 57.3821 187.904 57.3821Z" fill="#120D3D"/>
<path d="M186.815 115.573C182.925 116.56 178.974 114.202 178.007 110.312L165.893 62.4617C164.905 58.5716 167.263 54.6211 171.154 53.6536C175.044 52.6659 178.994 55.0242 179.962 58.9143L192.075 106.765C193.043 110.635 190.705 114.585 186.815 115.573Z" fill="#E8EDF9"/>
<path d="M185.022 116.802C181.333 116.802 177.947 114.303 177 110.554L164.886 62.7036C163.777 58.2894 166.458 53.7745 170.872 52.6659C173.009 52.1217 175.246 52.4442 177.141 53.5729C179.035 54.7017 180.386 56.4955 180.93 58.6522L193.044 106.503C194.152 110.917 191.472 115.432 187.057 116.54C186.372 116.722 185.707 116.802 185.022 116.802ZM172.928 54.4195C172.404 54.4195 171.9 54.4799 171.376 54.621C168.03 55.4676 165.994 58.8739 166.841 62.2198L178.955 110.07C179.801 113.416 183.208 115.452 186.554 114.605C189.899 113.759 191.935 110.352 191.089 107.006L178.975 59.1561C178.572 57.5437 177.544 56.173 176.113 55.3265C175.145 54.7218 174.057 54.4195 172.928 54.4195Z" fill="#120D3D"/>
<path d="M174.682 120.893C170.792 121.881 166.841 119.523 165.874 115.633L155.372 74.1113C154.385 70.2212 156.743 66.2707 160.633 65.3032C164.523 64.3357 168.474 66.6738 169.441 70.5639L179.942 112.085C180.91 115.955 178.572 119.906 174.682 120.893Z" fill="#E8EDF9"/>
<path d="M172.888 122.123C171.417 122.123 169.965 121.72 168.675 120.954C166.781 119.825 165.43 118.031 164.886 115.875L154.385 74.3535C153.276 69.9393 155.957 65.4244 160.371 64.3158C162.508 63.7716 164.745 64.0941 166.64 65.2228C168.534 66.3516 169.885 68.1454 170.429 70.3021L180.93 111.823C181.475 113.96 181.152 116.197 180.023 118.092C178.895 119.987 177.101 121.337 174.944 121.881C174.239 122.043 173.553 122.123 172.888 122.123ZM162.407 66.0694C161.883 66.0694 161.379 66.1298 160.855 66.2709C157.509 67.1175 155.473 70.5239 156.32 73.8697L166.821 115.391C167.224 117.004 168.252 118.374 169.683 119.221C171.114 120.067 172.807 120.329 174.42 119.906C176.032 119.503 177.403 118.475 178.25 117.044C179.096 115.613 179.358 113.92 178.935 112.307L168.434 70.7859C168.03 69.1734 167.003 67.8028 165.571 66.9562C164.604 66.3717 163.516 66.0694 162.407 66.0694Z" fill="#120D3D"/>
<path d="M193.547 131.838C188.911 113.536 171.879 123.352 166.397 119.24L153.316 109.525C149.587 106.824 144.366 107.651 141.665 111.4C138.965 115.129 139.791 120.349 143.54 123.05C143.54 123.05 173.532 147.378 187.621 152.8" fill="#E8EDF9"/>
<path d="M187.622 153.808C187.501 153.808 187.38 153.788 187.259 153.747C181.333 151.47 172.061 145.745 159.706 136.716C150.776 130.185 143.379 124.219 142.936 123.856C138.784 120.833 137.836 114.987 140.86 110.815C142.331 108.8 144.488 107.449 146.967 107.066C149.426 106.663 151.905 107.268 153.941 108.719L167.022 118.434C168.534 119.563 171.356 119.422 174.621 119.281C181.635 118.938 191.23 118.495 194.555 131.596C194.696 132.14 194.374 132.684 193.83 132.825C193.285 132.967 192.741 132.644 192.6 132.1C189.678 120.591 181.736 120.974 174.722 121.296C171.074 121.478 167.909 121.619 165.833 120.067L152.752 110.352C151.18 109.203 149.224 108.739 147.289 109.062C145.355 109.364 143.661 110.412 142.513 112.004C140.134 115.29 140.88 119.885 144.145 122.264C144.165 122.284 144.165 122.284 144.185 122.304C144.488 122.546 174.198 146.592 188.005 151.893C188.529 152.095 188.791 152.679 188.589 153.203C188.408 153.566 188.025 153.808 187.622 153.808Z" fill="#120D3D"/>
<path d="M177.342 100.053L201.831 93.8648C209.309 91.9701 216.928 96.5858 218.843 104.124L222.653 119.181C226.281 133.552 217.674 148.185 203.444 151.773C189.214 155.381 174.681 146.593 171.053 132.222L167.264 117.185C165.349 109.627 169.884 101.947 177.342 100.053Z" fill="#E8EDF9"/>
<path d="M206.165 106.262L261.795 91.8301L262.017 144.498L216.646 155.966C205.741 159.01 194.051 157.438 184.336 151.613L180.607 149.375" fill="#E8EDF9"/>
<path d="M205.621 158.485C198.022 158.485 190.444 156.449 183.832 152.499L180.104 150.261C179.62 149.979 179.479 149.354 179.761 148.871C180.043 148.387 180.668 148.246 181.152 148.528L184.881 150.765C194.314 156.409 205.802 157.961 216.405 154.998H216.425L261.05 143.731L260.828 93.1393L206.447 107.249C205.903 107.39 205.359 107.067 205.218 106.523C205.077 105.979 205.399 105.434 205.944 105.293L261.574 90.8617C261.876 90.7811 262.199 90.8415 262.441 91.0431C262.683 91.2245 262.824 91.5268 262.824 91.8292L263.045 144.497C263.045 144.96 262.743 145.363 262.28 145.484L216.908 156.953C213.22 157.961 209.41 158.485 205.621 158.485Z" fill="#120D3D"/>
<path d="M153.035 42.7099C152.531 42.7099 152.108 42.3471 152.027 41.823L151.281 36.139C151.201 35.5948 151.604 35.0909 152.148 35.0103C152.692 34.9297 153.196 35.3328 153.277 35.877L154.022 41.561C154.103 42.1052 153.7 42.6091 153.156 42.6897C153.115 42.7099 153.075 42.7099 153.035 42.7099Z" fill="#120D3D"/>
<path d="M171.579 43.4961C171.498 43.4961 171.438 43.4961 171.357 43.476C170.813 43.355 170.47 42.8108 170.591 42.2666L171.821 36.6633C171.942 36.119 172.486 35.7764 173.03 35.8973C173.574 36.0183 173.917 36.5625 173.796 37.1067L172.566 42.71C172.466 43.1736 172.042 43.4961 171.579 43.4961Z" fill="#120D3D"/>
<path d="M135.297 48.2327C134.934 48.2327 134.571 48.0311 134.41 47.6885L131.79 42.589C131.528 42.0851 131.729 41.4804 132.233 41.2386C132.737 40.9765 133.342 41.1781 133.584 41.682L136.204 46.7814C136.466 47.2853 136.264 47.89 135.761 48.1319C135.619 48.2125 135.458 48.2327 135.297 48.2327Z" fill="#120D3D"/>
<path d="M120.483 59.4397C120.241 59.4397 119.999 59.3591 119.798 59.1777L115.605 55.2674C115.202 54.8845 115.182 54.2596 115.565 53.8364C115.948 53.4332 116.573 53.4131 116.996 53.7961L121.189 57.7063C121.592 58.0893 121.612 58.7141 121.229 59.1374C121.027 59.339 120.745 59.4397 120.483 59.4397Z" fill="#120D3D"/>
</svg>
